<?xml version="1.0" encoding="UTF-8"?>
<svg version="1.1" xmlns="http://www.w3.org/2000/svg" width="204" height="192">
<path d="M0 0 C67.32 0 134.64 0 204 0 C204 63.36 204 126.72 204 192 C136.68 192 69.36 192 0 192 C0 128.64 0 65.28 0 0 Z " fill="#E1E23D" transform="translate(0,0)"/>
<path d="M0 0 C1.98 0 3.96 0 6 0 C6 0.66 6 1.32 6 2 C6.99 1.34 7.98 0.68 9 0 C12.06325633 -0.53592882 14.93879682 -0.55909859 18 0 C21.57386629 3.39517297 22.92941515 5.9235811 23.25 10.8125 C23.20129814 14.64603185 22.43073001 16.93908073 20 20 C17.00261059 21.99825961 16.36652492 22.27550398 13 22.25 C11.9790625 22.25773437 11.9790625 22.25773437 10.9375 22.265625 C9 22 9 22 6 20 C6 23.3 6 26.6 6 30 C4.02 30 2.04 30 0 30 C0 20.1 0 10.2 0 0 Z " fill="#2E2A20" transform="translate(95,86)"/>
<path d="M0 0 C2.60546875 0.515625 2.60546875 0.515625 5.79296875 2.578125 C7.60546875 5.515625 7.60546875 5.515625 7.60546875 12.515625 C2.65546875 12.515625 -2.29453125 12.515625 -7.39453125 12.515625 C-6.73453125 14.165625 -6.07453125 15.815625 -5.39453125 17.515625 C-2.47800951 17.68243609 -2.47800951 17.68243609 0.60546875 17.515625 C1.26546875 16.855625 1.92546875 16.195625 2.60546875 15.515625 C5.23046875 15.390625 5.23046875 15.390625 7.60546875 15.515625 C7.24142398 18.15494962 6.85045102 19.28880995 4.8671875 21.125 C0.99613531 23.50512881 -2.99796076 23.17724483 -7.39453125 22.515625 C-10.3287632 20.71915646 -11.8665848 19.5715179 -13.39453125 16.515625 C-13.99180123 11.77159485 -14.31139486 7.00930365 -11.58203125 2.890625 C-7.55139384 -0.11259503 -4.93383255 -0.29296712 0 0 Z " fill="#2B281F" transform="translate(57.39453125,85.484375)"/>
<path d="M0 0 C2.31 0 4.62 0 7 0 C7.33 5.61 7.66 11.22 8 17 C9.65 17 11.3 17 13 17 C14.52106634 13.95786733 14.37429338 10.71952428 14.5625 7.375 C14.60568359 6.66859375 14.64886719 5.9621875 14.69335938 5.234375 C14.79944751 3.48981463 14.90022889 1.74493303 15 0 C16.98 0 18.96 0 21 0 C21 7.26 21 14.52 21 22 C19.02 22 17.04 22 15 22 C15 21.34 15 20.68 15 20 C14.01 20.66 13.02 21.32 12 22 C6.30530973 22.63274336 6.30530973 22.63274336 4 22 C1.60307598 19.88334458 0.19053 18.21557249 -0.31420898 14.99536133 C-0.39340723 12.7127818 -0.34945088 10.46913265 -0.25 8.1875 C-0.23195312 7.39923828 -0.21390625 6.61097656 -0.1953125 5.79882812 C-0.14844048 3.86535739 -0.0767041 1.93251715 0 0 Z " fill="#322F21" transform="translate(133,86)"/>
<path d="M0 0 C2.2109375 1.44140625 2.2109375 1.44140625 4 4 C4.48552189 7.09886036 4.37702474 10.12323723 4.25 13.25 C4.23195313 14.09046875 4.21390625 14.9309375 4.1953125 15.796875 C4.14830798 17.86507395 4.07656724 19.93268441 4 22 C2.02 22 0.04 22 -2 22 C-2.33 16.72 -2.66 11.44 -3 6 C-4.98 6 -6.96 6 -9 6 C-9.33 11.28 -9.66 16.56 -10 22 C-11.98 22 -13.96 22 -16 22 C-16 15.07 -16 8.14 -16 1 C-14.35 1 -12.7 1 -11 1 C-11 1.66 -11 2.32 -11 3 C-10.34 3 -9.68 3 -9 3 C-9 2.34 -9 1.68 -9 1 C-5.90826248 -0.54586876 -3.40570448 -0.29359521 0 0 Z " fill="#2B271F" transform="translate(86,86)"/>
<path d="M0 0 C1.80859375 1.33984375 1.80859375 1.33984375 3 3 C3 3.99 3 4.98 3 6 C-1.08718695 6.24042276 -4.17679443 5.42258812 -8 4 C-8 5.32 -8 6.64 -8 8 C-7.30132812 8.12117188 -6.60265625 8.24234375 -5.8828125 8.3671875 C-4.97273437 8.53476563 -4.06265625 8.70234375 -3.125 8.875 C-2.22007812 9.03742188 -1.31515625 9.19984375 -0.3828125 9.3671875 C2 10 2 10 4 12 C4.375 15.4375 4.375 15.4375 4 19 C1.808751 21.21678803 0.39684037 21.93606781 -2.69140625 22.43359375 C-3.63886719 22.43488281 -4.58632812 22.43617187 -5.5625 22.4375 C-6.98755859 22.46650391 -6.98755859 22.46650391 -8.44140625 22.49609375 C-11 22 -11 22 -12.83984375 20.16015625 C-14 18 -14 18 -14 15 C-12.35 15 -10.7 15 -9 15 C-8.67 15.66 -8.34 16.32 -8 17 C-6.02 17 -4.04 17 -2 17 C-2 16.34 -2 15.68 -2 15 C-2.69867188 14.81824219 -3.39734375 14.63648437 -4.1171875 14.44921875 C-5.02726563 14.19785156 -5.93734375 13.94648437 -6.875 13.6875 C-7.77992188 13.44386719 -8.68484375 13.20023438 -9.6171875 12.94921875 C-12 12 -12 12 -14 9 C-14.48436452 5.85163059 -14.26042732 4.4379914 -12.625 1.6875 C-8.69375704 -0.83972762 -4.55545263 -0.84416568 0 0 Z " fill="#241F1E" transform="translate(172,86)"/>
<path d="M0 0 C1.98 0 3.96 0 6 0 C6 10.56 6 21.12 6 32 C4.02 32 2.04 32 0 32 C0 21.44 0 10.88 0 0 Z " fill="#2A271F" transform="translate(122,76)"/>
<path d="M0 0 C0.33 1.32 0.66 2.64 1 4 C2.65 4 4.3 4 6 4 C6 5.32 6 6.64 6 8 C4.35 8 2.7 8 1 8 C1.33 12.29 1.66 16.58 2 21 C3.32 21.33 4.64 21.66 6 22 C6 23.32 6 24.64 6 26 C0.04296875 26.390625 0.04296875 26.390625 -2 26 C-4.58170523 23.64880417 -4.97630338 22.26161073 -5.29296875 18.765625 C-5.24076172 17.02539062 -5.24076172 17.02539062 -5.1875 15.25 C-5.16042969 14.07953125 -5.13335938 12.9090625 -5.10546875 11.703125 C-5.07066406 10.81109375 -5.03585938 9.9190625 -5 9 C-5.66 9 -6.32 9 -7 9 C-5.44499019 5.18315774 -2.96404505 2.80804268 0 0 Z " fill="#1C171C" transform="translate(35,82)"/>
<path d="M0 0 C2.125 0.46484375 2.125 0.46484375 4.625 2.83984375 C7.09296624 7.15878466 7.65884907 10.49814077 7.125 15.46484375 C5.81182381 18.48514899 4.82814009 19.98143494 2.125 21.83984375 C0.125 22.46484375 0.125 22.46484375 -2.875 21.46484375 C-1 16.58984375 -1 16.58984375 0.125 15.46484375 C0.44960261 11.43401364 0.44960261 11.43401364 0.125 7.46484375 C-3.60630114 4.97730966 -4.64118877 5.74419503 -8.875 6.46484375 C-9.535 5.80484375 -10.195 5.14484375 -10.875 4.46484375 C-7.80256727 0.19015474 -4.97955447 -0.20475142 0 0 Z " fill="#27221E" transform="translate(110.875,85.53515625)"/>
<path d="M0 0 C1.65 0 3.3 0 5 0 C5 0.66 5 1.32 5 2 C6.98 1.67 8.96 1.34 11 1 C11 1.66 11 2.32 11 3 C10.03320312 3.24363281 10.03320312 3.24363281 9.046875 3.4921875 C6.5663746 4.95214403 6.5663746 4.95214403 6.390625 8.6953125 C6.32414708 10.17112237 6.27806121 11.64796017 6.25 13.125 C6.22035156 13.87910156 6.19070312 14.63320312 6.16015625 15.41015625 C6.08942068 17.27285953 6.04245017 19.13643755 6 21 C4.02 21 2.04 21 0 21 C0 14.07 0 7.14 0 0 Z " fill="#201D1D" transform="translate(70,87)"/>
<path d="M0 0 C1.98 0 3.96 0 6 0 C6 7.26 6 14.52 6 22 C4.02 22 2.04 22 0 22 C-1.14028262 18.57915214 -0.70707294 17.45734286 0 14 C0.06701506 11.56333235 0.08528021 9.12498258 0.0625 6.6875 C0.04896484 4.80611328 0.04896484 4.80611328 0.03515625 2.88671875 C0.02355469 1.93410156 0.01195312 0.98148437 0 0 Z " fill="#231E1E" transform="translate(148,86)"/>
<path d="M0 0 C2 2 2 2 2.3125 5.9375 C2.23719217 8.53091352 2.15247863 9.74319388 0.8125 12 C-1.66525842 13.36703913 -3.21155919 13.41826612 -6 13 C-7.8125 12 -7.8125 12 -9 10 C-9.47081949 7.24398345 -9.5148675 4.75168076 -9 2 C-6.2178907 -1.40035581 -4.02624767 -1.37740052 0 0 Z " fill="#D1D13C" transform="translate(110,91)"/>
<path d="M0 0 C0.33 1.32 0.66 2.64 1 4 C2.65 4 4.3 4 6 4 C6 5.32 6 6.64 6 8 C3.03 8.66 0.06 9.32 -3 10 C-3.33 13.96 -3.66 17.92 -4 22 C-4.33 22 -4.66 22 -5 22 C-5 17.71 -5 13.42 -5 9 C-5.66 9 -6.32 9 -7 9 C-5.44499019 5.18315774 -2.96404505 2.80804268 0 0 Z " fill="#343120" transform="translate(35,82)"/>
<path d="M0 0 C3.875 1.875 3.875 1.875 5 3 C5 5.31 5 7.62 5 10 C0.05 10 -4.9 10 -10 10 C-7 7 -7 7 -4.95703125 6.70703125 C-2.97135417 6.8046875 -0.98567708 6.90234375 1 7 C0.67 4.69 0.34 2.38 0 0 Z " fill="#19151C" transform="translate(60,88)"/>
<path d="M0 0 C0.33 0 0.66 0 1 0 C1 1.98 1 3.96 1 6 C-0.98 6 -2.96 6 -5 6 C-5.144375 6.639375 -5.28875 7.27875 -5.4375 7.9375 C-6 10 -6 10 -7 11 C-9.9375 11.25 -9.9375 11.25 -13 11 C-15 8 -15 8 -15 5 C-10.05 5 -5.1 5 0 5 C0 3.35 0 1.7 0 0 Z " fill="#C1C13B" transform="translate(65,93)"/>
<path d="M0 0 C1.98 0 3.96 0 6 0 C6 7.26 6 14.52 6 22 C5.34 22 4.68 22 4 22 C4 15.4 4 8.8 4 2 C3.01 2 2.02 2 1 2 C1 5.96 1 9.92 1 14 C0.67 14 0.34 14 0 14 C0 9.38 0 4.76 0 0 Z " fill="#2B261C" transform="translate(148,86)"/>
<path d="M0 0 C1.65 0 3.3 0 5 0 C5.33 0.66 5.66 1.32 6 2 C8.52733235 2.65555119 8.52733235 2.65555119 11 3 C10.01 3.33 9.02 3.66 8 4 C8 4.66 8 5.32 8 6 C6.35 6.33 4.7 6.66 3 7 C0 3.375 0 3.375 0 0 Z " fill="#2B271D" transform="translate(158,101)"/>
<path d="M0 0 C1.98 0 3.96 0 6 0 C6.66 1.65 7.32 3.3 8 5 C4.7 5 1.4 5 -2 5 C-1.34 3.35 -0.68 1.7 0 0 Z " fill="#CACA3D" transform="translate(52,90)"/>
<path d="M0 0 C1.66611905 -0.042721 3.33382885 -0.04063832 5 0 C5.33 0.33 5.66 0.66 6 1 C7.99958364 1.04080783 10.00045254 1.04254356 12 1 C12 1.66 12 2.32 12 3 C11.01 3.495 11.01 3.495 10 4 C10 4.66 10 5.32 10 6 C6.7 5.34 3.4 4.68 0 4 C0 2.68 0 1.36 0 0 Z " fill="#BCBD3B" transform="translate(164,90)"/>
<path d="M0 0 C1.51400391 0.01740234 1.51400391 0.01740234 3.05859375 0.03515625 C4.07050781 0.04417969 5.08242188 0.05320312 6.125 0.0625 C7.29869141 0.07990234 7.29869141 0.07990234 8.49609375 0.09765625 C9.25895611 3.50510813 9.61276654 5.74763787 8.49609375 9.09765625 C7.83609375 7.11765625 7.17609375 5.13765625 6.49609375 3.09765625 C5.21734375 2.95328125 3.93859375 2.80890625 2.62109375 2.66015625 C0.23916481 2.39122879 -1.34843316 2.17539279 -3.50390625 1.09765625 C-2.50390625 0.09765625 -2.50390625 0.09765625 0 0 Z " fill="#322E20" transform="translate(51.50390625,85.90234375)"/>
<path d="M0 0 C1.65 0 3.3 0 5 0 C4.64978759 2.53903996 4.15988127 3.82093298 2.4375 5.75 C-1.13999057 7.58461055 -4.00628343 7.19968583 -8 7 C-8 6.67 -8 6.34 -8 6 C-5.69 6 -3.38 6 -1 6 C-0.67 4.02 -0.34 2.04 0 0 Z " fill="#191418" transform="translate(60,101)"/>
<path d="M0 0 C2.31 0.33 4.62 0.66 7 1 C7 2.32 7 3.64 7 5 C5.02 5 3.04 5 1 5 C0.67 3.35 0.34 1.7 0 0 Z " fill="#C8C83B" transform="translate(163,99)"/>
<path d="M0 0 C0.99 0.99 1.98 1.98 3 3 C-0.96 3.66 -4.92 4.32 -9 5 C-8.67 3.68 -8.34 2.36 -8 1 C-4.99825776 -0.00058075 -3.12414314 -0.31241431 0 0 Z " fill="#1E191C" transform="translate(55,87)"/>
<path d="M0 0 C0.66 0.66 1.32 1.32 2 2 C0 5 0 5 -2.1640625 5.51171875 C-2.97617187 5.56972656 -3.78828125 5.62773438 -4.625 5.6875 C-5.85089844 5.78611328 -5.85089844 5.78611328 -7.1015625 5.88671875 C-7.72804687 5.92410156 -8.35453125 5.96148437 -9 6 C-9.33 5.34 -9.66 4.68 -10 4 C-9.36191406 3.79503906 -8.72382812 3.59007813 -8.06640625 3.37890625 C-7.24011719 3.10949219 -6.41382813 2.84007813 -5.5625 2.5625 C-4.73878906 2.29566406 -3.91507813 2.02882813 -3.06640625 1.75390625 C-1.03780412 1.17844506 -1.03780412 1.17844506 0 0 Z " fill="#221E1E" transform="translate(59,102)"/>
<path d="M0 0 C2.475 0.495 2.475 0.495 5 1 C5.33 2.32 5.66 3.64 6 5 C4.35 5 2.7 5 1 5 C0.67 3.35 0.34 1.7 0 0 Z " fill="#201C1D" transform="translate(169,87)"/>
<path d="M0 0 C1.65 0 3.3 0 5 0 C4.67 0.99 4.34 1.98 4 3 C4.99 3.33 5.98 3.66 7 4 C4.69 4 2.38 4 0 4 C0 2.68 0 1.36 0 0 Z " fill="#171117" transform="translate(104,104)"/>
</svg>
