<?xml version="1.0" standalone="no"?>
<!DOCTYPE svg PUBLIC "-//W3C//DTD SVG 20010904//EN"
 "http://www.w3.org/TR/2001/REC-SVG-20010904/DTD/svg10.dtd">
<svg version="1.0" xmlns="http://www.w3.org/2000/svg"
 width="204.000000pt" height="192.000000pt" viewBox="0 0 204.000000 192.000000"
 preserveAspectRatio="xMidYMid meet">

<g transform="translate(0.000000,192.000000) scale(0.100000,-0.100000)"
fill="#000000" stroke="none">
<path d="M1220 1000 l0 -160 30 0 30 0 0 160 0 160 -30 0 -30 0 0 -160z"/>
<path d="M315 1059 c-25 -26 -35 -43 -27 -46 8 -3 12 -26 12 -67 0 -80 17
-106 71 -106 31 0 39 4 39 18 0 9 -10 22 -22 27 -19 8 -23 19 -26 67 -3 52 -1
57 20 60 15 2 24 11 26 26 3 18 -1 22 -22 22 -17 0 -26 6 -28 21 -3 18 -8 15
-43 -22z"/>
<path d="M493 1050 c-30 -12 -53 -60 -53 -110 0 -33 6 -48 29 -71 25 -25 37
-29 83 -29 56 0 98 24 98 55 0 20 -44 19 -60 0 -18 -22 -67 -19 -80 5 -17 33
-3 40 76 40 l74 0 -6 28 c-9 45 -25 69 -51 81 -28 13 -79 13 -110 1z m96 -49
c14 -25 5 -31 -46 -31 -46 0 -53 9 -27 34 21 22 61 20 73 -3z"/>
<path d="M700 950 l0 -110 30 0 29 0 3 83 3 82 35 0 35 0 3 -82 3 -83 29 0 30
0 0 90 c0 77 -3 93 -20 110 -22 22 -69 26 -100 10 -13 -7 -21 -7 -25 0 -3 5
-17 10 -31 10 -24 0 -24 0 -24 -110z"/>
<path d="M950 915 l0 -145 30 0 c29 0 30 2 30 45 0 42 11 58 25 35 3 -5 25
-10 49 -10 55 0 86 31 93 93 11 94 -64 156 -140 116 -16 -9 -22 -9 -25 0 -2 6
-17 11 -33 11 l-29 0 0 -145z m150 85 c39 -39 12 -120 -39 -120 -25 0 -51 37
-51 72 0 30 31 68 55 68 8 0 24 -9 35 -20z"/>
<path d="M1337 1053 c-11 -10 -8 -139 4 -170 5 -15 16 -31 22 -35 19 -12 82
-9 96 5 11 10 14 10 18 0 3 -7 18 -13 34 -13 l29 0 0 110 0 110 -30 0 -30 0 0
-74 c0 -79 -13 -106 -50 -106 -29 0 -40 31 -40 109 0 68 -1 71 -23 71 -13 0
-27 -3 -30 -7z"/>
<path d="M1600 1040 c-43 -43 -20 -93 50 -110 38 -9 50 -16 50 -31 0 -14 -7
-19 -29 -19 -16 0 -31 6 -35 15 -9 23 -56 19 -56 -4 0 -29 39 -51 90 -51 61 0
90 21 90 65 0 40 -23 59 -82 69 -29 5 -38 12 -38 26 0 15 7 20 24 20 14 0 27
-4 30 -9 8 -12 55 -20 62 -10 3 5 -6 20 -20 34 -33 33 -106 35 -136 5z"/>
</g>
</svg>
